<?xml version="1.0" encoding="UTF-8"?>
<!DOCTYPE svg PUBLIC "-//W3C//DTD SVG 1.1//EN" "http://www.w3.org/Graphics/SVG/1.1/DTD/svg11.dtd">
<svg xmlns="http://www.w3.org/2000/svg" version="1.1" width="400px" height="400px" style="shape-rendering:geometricPrecision; text-rendering:geometricPrecision; image-rendering:optimizeQuality; fill-rule:evenodd; clip-rule:evenodd" xmlns:xlink="http://www.w3.org/1999/xlink">
<g><path style="opacity:1" fill="#025100" d="M 399.5,149.5 C 399.5,157.833 399.5,166.167 399.5,174.5C 382.833,174.5 366.167,174.5 349.5,174.5C 349.5,166.167 349.5,157.833 349.5,149.5C 349.5,141.167 349.5,132.833 349.5,124.5C 357.833,124.5 366.167,124.5 374.5,124.5C 374.5,132.833 374.5,141.167 374.5,149.5C 382.833,149.5 391.167,149.5 399.5,149.5 Z"/></g>
<g><path style="opacity:1" fill="#000000" d="M 349.5,149.5 C 349.5,157.833 349.5,166.167 349.5,174.5C 341.167,174.5 332.833,174.5 324.5,174.5C 324.5,166.167 324.5,157.833 324.5,149.5C 332.833,149.5 341.167,149.5 349.5,149.5 Z"/></g>
<g><path style="opacity:1" fill="#a40224" d="M 324.5,174.5 C 332.833,174.5 341.167,174.5 349.5,174.5C 349.5,191.167 349.5,207.833 349.5,224.5C 341.167,224.5 332.833,224.5 324.5,224.5C 324.5,232.833 324.5,241.167 324.5,249.5C 324.5,257.833 324.5,266.167 324.5,274.5C 324.5,282.833 324.5,291.167 324.5,299.5C 316.167,299.5 307.833,299.5 299.5,299.5C 291.167,299.5 282.833,299.5 274.5,299.5C 274.5,307.833 274.5,316.167 274.5,324.5C 257.833,324.5 241.167,324.5 224.5,324.5C 216.167,324.5 207.833,324.5 199.5,324.5C 199.5,316.167 199.5,307.833 199.5,299.5C 191.167,299.5 182.833,299.5 174.5,299.5C 174.5,307.833 174.5,316.167 174.5,324.5C 166.167,324.5 157.833,324.5 149.5,324.5C 149.5,316.167 149.5,307.833 149.5,299.5C 141.167,299.5 132.833,299.5 124.5,299.5C 124.5,291.167 124.5,282.833 124.5,274.5C 116.167,274.5 107.833,274.5 99.5,274.5C 91.1667,274.5 82.8333,274.5 74.5,274.5C 74.5,266.167 74.5,257.833 74.5,249.5C 82.8333,249.5 91.1667,249.5 99.5,249.5C 116.167,249.5 132.833,249.5 149.5,249.5C 149.5,257.833 149.5,266.167 149.5,274.5C 157.833,274.5 166.167,274.5 174.5,274.5C 174.5,266.167 174.5,257.833 174.5,249.5C 191.167,249.5 207.833,249.5 224.5,249.5C 224.5,241.167 224.5,232.833 224.5,224.5C 241.167,224.5 257.833,224.5 274.5,224.5C 282.833,224.5 291.167,224.5 299.5,224.5C 299.5,216.167 299.5,207.833 299.5,199.5C 291.167,199.5 282.833,199.5 274.5,199.5C 274.5,191.167 274.5,182.833 274.5,174.5C 291.167,174.5 307.833,174.5 324.5,174.5 Z"/></g>
<g><path style="opacity:1" fill="#00ff00" d="M 349.5,174.5 C 366.167,174.5 382.833,174.5 399.5,174.5C 399.5,182.833 399.5,191.167 399.5,199.5C 391.167,199.5 382.833,199.5 374.5,199.5C 374.5,207.833 374.5,216.167 374.5,224.5C 366.167,224.5 357.833,224.5 349.5,224.5C 349.5,207.833 349.5,191.167 349.5,174.5 Z"/></g>
<g><path style="opacity:1" fill="#000000" d="M 274.5,199.5 C 282.833,199.5 291.167,199.5 299.5,199.5C 299.5,207.833 299.5,216.167 299.5,224.5C 291.167,224.5 282.833,224.5 274.5,224.5C 274.5,216.167 274.5,207.833 274.5,199.5 Z"/></g>
<g><path style="opacity:1" fill="#025100" d="M 399.5,199.5 C 399.5,216.167 399.5,232.833 399.5,249.5C 391.167,249.5 382.833,249.5 374.5,249.5C 374.5,266.167 374.5,282.833 374.5,299.5C 366.167,299.5 357.833,299.5 349.5,299.5C 349.5,291.167 349.5,282.833 349.5,274.5C 341.167,274.5 332.833,274.5 324.5,274.5C 324.5,266.167 324.5,257.833 324.5,249.5C 332.833,249.5 341.167,249.5 349.5,249.5C 349.5,241.167 349.5,232.833 349.5,224.5C 357.833,224.5 366.167,224.5 374.5,224.5C 374.5,216.167 374.5,207.833 374.5,199.5C 382.833,199.5 391.167,199.5 399.5,199.5 Z"/></g>
<g><path style="opacity:1" fill="#025100" d="M -0.5,224.5 C 16.1667,224.5 32.8333,224.5 49.5,224.5C 49.5,232.833 49.5,241.167 49.5,249.5C 41.1667,249.5 32.8333,249.5 24.5,249.5C 24.5,257.833 24.5,266.167 24.5,274.5C 16.1667,274.5 7.83333,274.5 -0.5,274.5C -0.5,257.833 -0.5,241.167 -0.5,224.5 Z"/></g>
<g><path style="opacity:1" fill="#a40224" d="M 49.5,224.5 C 57.8333,224.5 66.1667,224.5 74.5,224.5C 74.5,232.833 74.5,241.167 74.5,249.5C 66.1667,249.5 57.8333,249.5 49.5,249.5C 49.5,241.167 49.5,232.833 49.5,224.5 Z"/></g>
<g><path style="opacity:1" fill="#000000" d="M 74.5,224.5 C 82.8333,224.5 91.1667,224.5 99.5,224.5C 99.5,232.833 99.5,241.167 99.5,249.5C 91.1667,249.5 82.8333,249.5 74.5,249.5C 74.5,241.167 74.5,232.833 74.5,224.5 Z"/></g>
<g><path style="opacity:1" fill="#000000" d="M 349.5,224.5 C 349.5,232.833 349.5,241.167 349.5,249.5C 341.167,249.5 332.833,249.5 324.5,249.5C 324.5,241.167 324.5,232.833 324.5,224.5C 332.833,224.5 341.167,224.5 349.5,224.5 Z"/></g>
<g><path style="opacity:1" fill="#00ff00" d="M 49.5,249.5 C 49.5,257.833 49.5,266.167 49.5,274.5C 41.1667,274.5 32.8333,274.5 24.5,274.5C 24.5,266.167 24.5,257.833 24.5,249.5C 32.8333,249.5 41.1667,249.5 49.5,249.5 Z"/></g>
<g><path style="opacity:1" fill="#025100" d="M 49.5,249.5 C 57.8333,249.5 66.1667,249.5 74.5,249.5C 74.5,257.833 74.5,266.167 74.5,274.5C 82.8333,274.5 91.1667,274.5 99.5,274.5C 99.5,282.833 99.5,291.167 99.5,299.5C 91.1667,299.5 82.8333,299.5 74.5,299.5C 74.5,307.833 74.5,316.167 74.5,324.5C 66.1667,324.5 57.8333,324.5 49.5,324.5C 49.5,316.167 49.5,307.833 49.5,299.5C 41.1667,299.5 32.8333,299.5 24.5,299.5C 24.5,291.167 24.5,282.833 24.5,274.5C 32.8333,274.5 41.1667,274.5 49.5,274.5C 49.5,266.167 49.5,257.833 49.5,249.5 Z"/></g>
<g><path style="opacity:1" fill="#000000" d="M 149.5,249.5 C 157.833,249.5 166.167,249.5 174.5,249.5C 174.5,257.833 174.5,266.167 174.5,274.5C 166.167,274.5 157.833,274.5 149.5,274.5C 149.5,266.167 149.5,257.833 149.5,249.5 Z"/></g>
<g><path style="opacity:1" fill="#00ff00" d="M 99.5,274.5 C 107.833,274.5 116.167,274.5 124.5,274.5C 124.5,282.833 124.5,291.167 124.5,299.5C 132.833,299.5 141.167,299.5 149.5,299.5C 149.5,307.833 149.5,316.167 149.5,324.5C 149.5,332.833 149.5,341.167 149.5,349.5C 141.167,349.5 132.833,349.5 124.5,349.5C 124.5,357.833 124.5,366.167 124.5,374.5C 116.167,374.5 107.833,374.5 99.5,374.5C 99.5,366.167 99.5,357.833 99.5,349.5C 99.5,341.167 99.5,332.833 99.5,324.5C 91.1667,324.5 82.8333,324.5 74.5,324.5C 74.5,316.167 74.5,307.833 74.5,299.5C 82.8333,299.5 91.1667,299.5 99.5,299.5C 99.5,291.167 99.5,282.833 99.5,274.5 Z"/></g>
<g><path style="opacity:1" fill="#000000" d="M 224.5,274.5 C 232.833,274.5 241.167,274.5 249.5,274.5C 249.5,282.833 249.5,291.167 249.5,299.5C 241.167,299.5 232.833,299.5 224.5,299.5C 224.5,291.167 224.5,282.833 224.5,274.5 Z"/></g>
<g><path style="opacity:1" fill="#00ff00" d="M 324.5,274.5 C 332.833,274.5 341.167,274.5 349.5,274.5C 349.5,282.833 349.5,291.167 349.5,299.5C 357.833,299.5 366.167,299.5 374.5,299.5C 374.5,307.833 374.5,316.167 374.5,324.5C 366.167,324.5 357.833,324.5 349.5,324.5C 341.167,324.5 332.833,324.5 324.5,324.5C 324.5,316.167 324.5,307.833 324.5,299.5C 324.5,291.167 324.5,282.833 324.5,274.5 Z"/></g>
<g><path style="opacity:1" fill="#025100" d="M 124.5,299.5 C 132.833,299.5 141.167,299.5 149.5,299.5C 149.5,307.833 149.5,316.167 149.5,324.5C 141.167,324.5 132.833,324.5 124.5,324.5C 124.5,316.167 124.5,307.833 124.5,299.5 Z"/></g>
<g><path style="opacity:1" fill="#000000" d="M 199.5,324.5 C 191.167,324.5 182.833,324.5 174.5,324.5C 174.5,316.167 174.5,307.833 174.5,299.5C 182.833,299.5 191.167,299.5 199.5,299.5C 199.5,307.833 199.5,316.167 199.5,324.5 Z"/></g>
<g><path style="opacity:1" fill="#000000" d="M 299.5,299.5 C 299.5,307.833 299.5,316.167 299.5,324.5C 291.167,324.5 282.833,324.5 274.5,324.5C 274.5,316.167 274.5,307.833 274.5,299.5C 282.833,299.5 291.167,299.5 299.5,299.5 Z"/></g>
<g><path style="opacity:1" fill="#025100" d="M 299.5,299.5 C 307.833,299.5 316.167,299.5 324.5,299.5C 324.5,307.833 324.5,316.167 324.5,324.5C 332.833,324.5 341.167,324.5 349.5,324.5C 349.5,332.833 349.5,341.167 349.5,349.5C 341.167,349.5 332.833,349.5 324.5,349.5C 324.5,357.833 324.5,366.167 324.5,374.5C 316.167,374.5 307.833,374.5 299.5,374.5C 299.5,382.833 299.5,391.167 299.5,399.5C 291.167,399.5 282.833,399.5 274.5,399.5C 274.5,391.167 274.5,382.833 274.5,374.5C 266.167,374.5 257.833,374.5 249.5,374.5C 249.5,366.167 249.5,357.833 249.5,349.5C 241.167,349.5 232.833,349.5 224.5,349.5C 224.5,341.167 224.5,332.833 224.5,324.5C 241.167,324.5 257.833,324.5 274.5,324.5C 282.833,324.5 291.167,324.5 299.5,324.5C 299.5,316.167 299.5,307.833 299.5,299.5 Z"/></g>
<g><path style="opacity:1" fill="#025100" d="M 74.5,324.5 C 82.8333,324.5 91.1667,324.5 99.5,324.5C 99.5,332.833 99.5,341.167 99.5,349.5C 91.1667,349.5 82.8333,349.5 74.5,349.5C 74.5,341.167 74.5,332.833 74.5,324.5 Z"/></g>
<g><path style="opacity:1" fill="#025100" d="M 149.5,324.5 C 157.833,324.5 166.167,324.5 174.5,324.5C 182.833,324.5 191.167,324.5 199.5,324.5C 199.5,349.5 199.5,374.5 199.5,399.5C 174.5,399.5 149.5,399.5 124.5,399.5C 124.5,391.167 124.5,382.833 124.5,374.5C 124.5,366.167 124.5,357.833 124.5,349.5C 132.833,349.5 141.167,349.5 149.5,349.5C 149.5,341.167 149.5,332.833 149.5,324.5 Z"/></g>
<g><path style="opacity:1" fill="#00ff00" d="M 199.5,324.5 C 207.833,324.5 216.167,324.5 224.5,324.5C 224.5,332.833 224.5,341.167 224.5,349.5C 232.833,349.5 241.167,349.5 249.5,349.5C 249.5,357.833 249.5,366.167 249.5,374.5C 257.833,374.5 266.167,374.5 274.5,374.5C 274.5,382.833 274.5,391.167 274.5,399.5C 249.5,399.5 224.5,399.5 199.5,399.5C 199.5,374.5 199.5,349.5 199.5,324.5 Z"/></g>
</svg>
